<svg width="558" height="564" viewBox="0 0 558 564" fill="none" xmlns="http://www.w3.org/2000/svg">
<path fill-rule="evenodd" clip-rule="evenodd" d="M262.5 564C395.877 564 504 455.877 504 322.5C504 189.123 395.877 81 262.5 81C129.123 81 21 189.123 21 322.5C21 455.877 129.123 564 262.5 564Z" fill="#04829B"/>
<path fill-rule="evenodd" clip-rule="evenodd" d="M453.5 209C511.214 209 558 162.214 558 104.5C558 46.7862 511.214 0 453.5 0C395.786 0 349 46.7862 349 104.5C349 162.214 395.786 209 453.5 209Z" fill="#FF950F"/>
<path d="M434.77 291.932C434.77 291.932 436.431 267.862 442.8 263.02C449.17 258.179 484.477 259.839 484.477 259.839C484.477 259.839 495.693 232.586 500.539 234.246C505.385 235.906 503.723 240.61 503.723 240.61L489.323 274.225L447.646 290.272L434.77 291.932Z" fill="#FCB8A5"/>
<path d="M94.1546 291.932C94.1546 291.932 92.493 267.862 86.1238 263.02C79.7546 258.179 44.4469 259.839 44.4469 259.839C44.4469 259.839 33.2315 232.586 28.3853 234.246C23.5392 235.906 25.2007 240.61 25.2007 240.61L39.6007 274.225L81.2776 290.272L94.1546 291.932Z" fill="#FCB8A5"/>
<path d="M200.908 524.475L192.047 354.737H277.616L275.401 524.475H200.908Z" fill="#0F6693"/>
<path d="M69.2305 287.644L91.1074 383.649C91.1074 383.649 95.5382 399.281 115.2 399.281L205.2 408.273L204.092 354.598H119.63L93.3228 280.865L69.2305 287.644Z" fill="#0F6693"/>
<path d="M328.014 524.475L336.876 354.737H273.184L275.399 524.475H328.014Z" fill="#0F6693"/>
<path d="M459.692 287.644L437.815 383.649C437.815 383.649 433.384 399.281 413.723 399.281L323.723 408.273L324.83 354.598H409.292L435.6 280.865L459.692 287.644Z" fill="#0F6693"/>
<path opacity="0.35" d="M91.1055 383.372L91.2439 383.787C91.2439 383.787 95.6747 399.419 115.336 399.419L205.336 408.411L204.782 383.511H91.1055V383.372Z" fill="#0F6693"/>
<path opacity="0.35" d="M324.14 383.372L323.586 408.273L413.586 399.281C433.386 399.281 437.678 383.649 437.678 383.649L437.817 383.234H324.14V383.372Z" fill="#0F6693"/>
<path d="M327.878 525.858H360.832L405.416 469.279C405.416 469.279 414.832 455.998 402.37 440.643L352.801 365.112L311.816 399.696L364.847 465.267L327.878 525.858Z" fill="#0F6693"/>
<path d="M191.354 525.858H158.4L113.816 469.279C113.816 469.279 104.4 455.998 116.862 440.643L166.431 365.112L207.416 399.696L154.385 465.267L191.354 525.858Z" fill="#0F6693"/>
<path opacity="0.24" d="M327.876 525.858H336.46C357.091 505.384 366.645 481.867 386.999 461.117L323.722 389.597L311.676 399.696L364.707 465.267L327.876 525.858Z" fill="#0F6693"/>
<path opacity="0.24" d="M198.414 392.087C176.399 413.944 159.783 439.813 137.906 461.809C147.875 475.227 151.06 483.112 159.091 494.179C166.706 504.831 174.322 515.344 182.075 525.858H191.491L154.522 465.405L207.552 399.834L198.414 392.087Z" fill="#0F6693"/>
<path d="M278.31 323.888H250.617V366.772H278.31V323.888Z" fill="#FCB8A5"/>
<path d="M278.31 366.772L250.617 330.805L278.31 323.888V366.772Z" fill="#F5A692"/>
<path d="M294.926 332.188H229.849C216.141 332.188 204.926 320.983 204.926 307.288V222.903C204.926 209.208 216.141 198.003 229.849 198.003H294.926C308.633 198.003 319.849 209.208 319.849 222.903V307.288C319.849 320.983 308.633 332.188 294.926 332.188Z" fill="#FCB8A5"/>
<path d="M294.926 332.188H229.849C216.141 332.188 204.926 320.983 204.926 307.288V222.903C204.926 209.208 216.141 198.003 229.849 198.003H294.926C308.633 198.003 319.849 209.208 319.849 222.903V307.288C319.849 320.983 308.633 332.188 294.926 332.188Z" fill="#FCB8A5"/>
<path d="M315.695 209.208V272.704C315.695 286.399 304.48 297.604 290.772 297.604H234.003C220.295 297.604 209.08 286.399 209.08 272.704V209.208C206.449 213.081 204.926 217.923 204.926 222.903V307.288C204.926 320.983 216.141 332.188 229.849 332.188H294.926C308.633 332.188 319.849 320.983 319.849 307.288V222.903C319.849 217.785 318.326 213.081 315.695 209.208Z" fill="#81276A"/>
<path d="M291.046 315.588H233.861C230.123 315.588 227.215 312.544 227.215 308.948V286.399C227.215 282.664 230.261 279.759 233.861 279.759H291.046C294.784 279.759 297.692 282.802 297.692 286.399V308.948C297.692 312.544 294.646 315.588 291.046 315.588Z" fill="#81276A"/>
<path d="M278.311 293.869C278.311 303.414 270.557 307.011 261.003 307.011C251.449 307.011 243.695 303.414 243.695 293.869" stroke="#FCB8A5" stroke-width="3" stroke-miterlimit="10" stroke-linecap="round" stroke-linejoin="round"/>
<path d="M264.463 380.606C275.169 380.606 283.847 374.412 283.847 366.772C283.847 359.132 275.169 352.938 264.463 352.938C253.757 352.938 245.078 359.132 245.078 366.772C245.078 374.412 253.757 380.606 264.463 380.606Z" fill="#FCB8A5"/>
<path d="M294.234 487.124H234.695V513.408H294.234V487.124Z" fill="#113159"/>
<path d="M325.802 524.06C324.14 515.76 313.756 509.258 301.156 509.258H227.771C215.171 509.258 204.648 515.76 203.125 524.06H325.802Z" fill="white"/>
<path d="M332.311 492.658H196.618C182.911 492.658 171.695 481.452 171.695 467.757V369.539C171.695 355.844 182.911 344.638 196.618 344.638H332.311C346.018 344.638 357.234 355.844 357.234 369.539V467.757C357.234 481.452 346.018 492.658 332.311 492.658Z" fill="white"/>
<path opacity="0.11" d="M347.403 349.757C332.587 363.452 316.664 376.317 301.71 389.736C282.88 406.613 264.049 423.628 245.218 440.505C226.664 457.105 207.972 473.291 189.556 490.029C189.141 490.444 188.726 490.859 188.172 491.274C190.803 492.243 193.572 492.796 196.618 492.796H332.31C346.018 492.796 357.233 481.591 357.233 467.895V369.677C357.233 361.515 353.356 354.322 347.403 349.757Z" fill="#3863B1"/>
<path d="M315.002 209.069C315.002 209.069 214.617 247.803 191.079 214.603C164.771 177.529 192.463 162.035 199.248 159.269C205.894 156.502 225.971 150.968 237.74 175.869C237.74 175.869 230.263 157.885 246.602 153.735C262.94 149.585 276.233 178.636 276.233 178.636C276.233 178.636 297.002 164.802 313.34 174.485C329.679 184.169 325.248 206.303 325.248 210.453C325.248 214.603 318.879 249.602 318.879 249.602L315.002 209.069Z" fill="#81276A"/>
<path d="M188.309 174.486C188.309 174.486 185.539 189.703 192.463 202.153C199.386 214.603 213.232 224.286 234.001 221.52C234.001 221.52 193.847 227.053 188.309 174.486Z" fill="#FCFCFC"/>
<path d="M242.032 185.829C242.032 185.829 240.371 194.683 244.386 201.876C248.401 209.069 256.432 214.741 268.478 213.081C268.617 213.081 245.355 216.401 242.032 185.829Z" fill="#FCFCFC"/>
<path d="M276.648 187.351C276.648 187.351 275.541 193.437 278.31 198.417C281.079 203.398 286.618 207.271 294.925 206.164C294.925 206.164 278.864 208.378 276.648 187.351Z" fill="#FCFCFC"/>
<path d="M228.878 270.352C243.255 270.352 254.909 258.708 254.909 244.345C254.909 229.982 243.255 218.338 228.878 218.338C214.502 218.338 202.848 229.982 202.848 244.345C202.848 258.708 214.502 270.352 228.878 270.352Z" stroke="#113159" stroke-width="3" stroke-miterlimit="10" stroke-linecap="round" stroke-linejoin="round"/>
<path d="M296.031 270.352C310.407 270.352 322.062 258.708 322.062 244.345C322.062 229.982 310.407 218.338 296.031 218.338C281.654 218.338 270 229.982 270 244.345C270 258.708 281.654 270.352 296.031 270.352Z" stroke="#113159" stroke-width="3" stroke-miterlimit="10" stroke-linecap="round" stroke-linejoin="round"/>
<path d="M263.077 272.012C260.446 272.012 258.23 269.799 258.23 267.17V235.353C258.23 232.725 260.446 230.511 263.077 230.511C265.707 230.511 267.923 232.725 267.923 235.353V267.17C267.923 269.799 265.707 272.012 263.077 272.012Z" fill="#FF7C89"/>
<path d="M254.77 247.112C254.77 243.238 258.231 240.195 262.385 240.195C266.539 240.195 270 243.238 270 247.112" stroke="#113159" stroke-width="3" stroke-miterlimit="10" stroke-linecap="round" stroke-linejoin="round"/>
<path d="M229.847 264.404C232.906 264.404 235.386 261.926 235.386 258.87C235.386 255.814 232.906 253.337 229.847 253.337C226.788 253.337 224.309 255.814 224.309 258.87C224.309 261.926 226.788 264.404 229.847 264.404Z" fill="#113159"/>
<path d="M297.691 264.404C300.75 264.404 303.229 261.926 303.229 258.87C303.229 255.814 300.75 253.337 297.691 253.337C294.632 253.337 292.152 255.814 292.152 258.87C292.152 261.926 294.632 264.404 297.691 264.404Z" fill="#113159"/>
<path d="M200.769 246.42C202.299 246.42 203.538 245.181 203.538 243.653C203.538 242.125 202.299 240.886 200.769 240.886C199.24 240.886 198 242.125 198 243.653C198 245.181 199.24 246.42 200.769 246.42Z" fill="#113159"/>
<path d="M324 246.42C325.529 246.42 326.769 245.181 326.769 243.653C326.769 242.125 325.529 240.886 324 240.886C322.47 240.886 321.23 242.125 321.23 243.653C321.23 245.181 322.47 246.42 324 246.42Z" fill="#113159"/>
<path d="M210.462 300.371C210.462 300.371 207.693 323.888 229.847 325.271C229.847 325.271 210.462 319.738 210.462 300.371Z" fill="#FCFCFC"/>
<path d="M314.31 300.371C314.31 300.371 317.08 323.888 294.926 325.271C294.926 325.271 314.31 319.738 314.31 300.371Z" fill="#FCFCFC"/>
<path d="M337.848 106.701H389.078" stroke="white" stroke-width="2" stroke-miterlimit="10"/>
<path d="M353.078 115.001H404.309" stroke="white" stroke-width="2" stroke-miterlimit="10"/>
<path d="M85.8477 33.3833H137.078" stroke="white" stroke-width="2" stroke-miterlimit="10"/>
<path d="M101.078 41.6836H152.309" stroke="white" stroke-width="2" stroke-miterlimit="10"/>
<path d="M425.078 430.406H476.309" stroke="white" stroke-width="2" stroke-miterlimit="10"/>
<path d="M440.309 438.707H491.539" stroke="white" stroke-width="2" stroke-miterlimit="10"/>
<path d="M0 383.372H51.2308" stroke="white" stroke-width="2" stroke-miterlimit="10"/>
<path d="M15.2305 391.672H66.4612" stroke="white" stroke-width="2" stroke-miterlimit="10"/>
<path d="M477.415 523.368H53.7227V539H477.415V523.368Z" fill="#113159"/>
</svg>
